<?xml version="1.0" encoding="utf-8"?>
<!-- Generator: Adobe Illustrator 26.0.0, SVG Export Plug-In . SVG Version: 6.00 Build 0)  -->
<svg version="1.1" id="Capa_1" xmlns="http://www.w3.org/2000/svg" xmlns:xlink="http://www.w3.org/1999/xlink" x="0px" y="0px"
	 viewBox="0 0 200 200" style="enable-background:new 0 0 200 200;" xml:space="preserve">
<style type="text/css">
	.st0{fill:#D2D2D2;}
</style>
<path class="st0" d="M125.1,107.4h-3.4c-3.1,0-5.9-2-6.9-4.9c-0.6-1.8-1.4-3.5-2.2-5.2c-1.4-2.8-0.8-6.2,1.4-8.4l2.4-2.4
	c4-4,4-10.6,0-14.6l-1.7-1.7c-4-4-10.6-4-14.6,0l-2.4,2.4c-2.2,2.2-5.5,2.8-8.3,1.4c-1.7-0.8-3.4-1.5-5.2-2.2
	c-2.9-1-4.9-3.8-4.9-6.9v-3.4c0-5.7-4.6-10.3-10.3-10.3h-2.4c-5.7,0-10.3,4.6-10.3,10.3v3.4c0,3.1-2,5.9-4.9,6.9
	c-1.8,0.6-3.5,1.4-5.2,2.2c-2.8,1.4-6.2,0.8-8.4-1.4l-2.4-2.4c-4-4-10.6-4-14.6,0l-1.7,1.7c-4,4-4,10.6,0,14.6l2.4,2.4
	c2.2,2.2,2.8,5.5,1.4,8.3c-0.8,1.7-1.5,3.4-2.2,5.2c-1,2.9-3.8,4.9-6.9,4.9h-3.4C4.6,107.7,0,112.3,0,118v2.4
	c0,5.7,4.6,10.3,10.3,10.3h3.4c3.1,0,5.9,2,6.9,4.9c0.6,1.8,1.4,3.5,2.2,5.2c1.4,2.8,0.8,6.2-1.4,8.4l-2.4,2.4c-4,4-4,10.6,0,14.6
	l1.7,1.7c4,4,10.6,4,14.6,0l2.4-2.4c2.2-2.2,5.5-2.8,8.3-1.4c1.7,0.8,3.4,1.5,5.2,2.2c2.9,1,4.9,3.8,4.9,6.9v3.4
	c0,5.7,4.6,10.3,10.3,10.3H69c5.7,0,10.3-4.6,10.3-10.3V173c0-3.1,2-5.9,4.9-6.9c1.8-0.6,3.5-1.4,5.2-2.2c2.8-1.4,6.2-0.8,8.4,1.4
	l2.4,2.4c4,4,10.6,4,14.6,0l1.7-1.7c4-4,4-10.6,0-14.6l-2.4-2.4c-2.2-2.2-2.8-5.5-1.4-8.3c0.8-1.7,1.5-3.4,2.2-5.2
	c1-2.9,3.8-4.9,6.9-4.9h3.4c5.7,0,10.3-4.6,10.3-10.3v-2.4C135.4,112,130.8,107.4,125.1,107.4L125.1,107.4z M67.7,144.1
	c-13.9,0-25.1-11.2-25.1-25.1c0-13.9,11.2-25.1,25.1-25.1c13.8,0,25.1,11.2,25.1,25.1C92.8,132.9,81.5,144.1,67.7,144.1z"/>
<path class="st0" d="M193.3,49.5h-1.7c-2.6,0-4.8-1.6-5.8-4c-0.2-0.6-0.5-1.2-0.7-1.8c-1.1-2.3-0.6-5.1,1.3-6.9l1.2-1.2
	c2.6-2.6,2.6-6.9,0-9.5l-0.5-0.5c-2.6-2.6-6.9-2.6-9.5,0l-1.2,1.2c-1.8,1.8-4.5,2.3-6.9,1.3c-0.6-0.3-1.2-0.5-1.8-0.7
	c-2.4-0.9-4-3.2-4-5.7v-1.7c0-3.7-3-6.7-6.7-6.7h-0.7c-3.7,0-6.7,3-6.7,6.7v1.7c0,2.6-1.6,4.8-4,5.8c-0.6,0.2-1.2,0.5-1.8,0.7
	c-2.3,1-5.1,0.6-6.9-1.3l-1.2-1.2c-2.6-2.6-6.9-2.6-9.5,0l-0.5,0.5c-2.6,2.6-2.6,6.9,0,9.5l1.2,1.2c1.8,1.8,2.3,4.5,1.3,6.9
	c-0.3,0.6-0.5,1.2-0.7,1.8c-0.9,2.4-3.2,4-5.7,4h-1.7c-3.7,0-6.7,3-6.7,6.7v0.7c0,3.7,3,6.7,6.7,6.7h1.7c2.6,0,4.8,1.6,5.8,4
	c0.2,0.6,0.5,1.2,0.7,1.8c1.1,2.3,0.6,5.1-1.3,6.9l-1.2,1.2c-2.6,2.6-2.6,6.9,0,9.5l0.5,0.5c2.6,2.6,6.9,2.6,9.5,0l1.2-1.2
	c1.8-1.8,4.5-2.3,6.9-1.3c0.6,0.3,1.2,0.5,1.8,0.7c2.4,0.9,4,3.2,4,5.7v1.7c0,3.7,3,6.7,6.7,6.7h0.7c3.7,0,6.7-3,6.7-6.7v-1.7
	c0-2.6,1.6-4.8,4-5.8c0.6-0.2,1.2-0.5,1.8-0.7c2.3-1.1,5.1-0.6,6.9,1.3l1.2,1.2c2.6,2.6,6.8,2.6,9.5,0l0.5-0.5
	c2.6-2.6,2.6-6.9,0-9.5l-1.2-1.2c-1.8-1.8-2.3-4.5-1.3-6.9c0.3-0.6,0.5-1.2,0.7-1.8c0.9-2.4,3.2-4,5.7-4h1.7c3.7,0,6.7-3,6.7-6.7
	v-0.7C200,52.5,197,49.5,193.3,49.5L193.3,49.5z M156.7,71.2c-8.1,0-14.7-6.6-14.7-14.7s6.6-14.7,14.7-14.7
	c8.1,0,14.7,6.6,14.7,14.7S164.8,71.2,156.7,71.2z"/>
</svg>
