<?xml version="1.0" encoding="utf-8"?>
<!-- Generator: Adobe Illustrator 26.0.0, SVG Export Plug-In . SVG Version: 6.00 Build 0)  -->
<svg version="1.1" id="Capa_1" xmlns="http://www.w3.org/2000/svg" xmlns:xlink="http://www.w3.org/1999/xlink" x="0px" y="0px"
	 viewBox="0 0 16 16" style="enable-background:new 0 0 16 16;" xml:space="preserve">
<style type="text/css">
	.st0{fill:#D2D2D2;}
	.st1{fill:#D2D2D2;fill-opacity:0.349;}
</style>
<g>
	<path class="st0" d="M1,1v14h14V1H1z M2,2h12v12H2V2z"/>
	<path class="st0" d="M6,11h1v1H6V11z M7,12h1v1H7V12z M6,9h1v1H6V9z M7,10h1v1H7V10z M6,7h1v1H6V7z M7,8h1v1H7V8z M6,5h1v1H6V5z
		 M7,6h1v1H7V6z M6,3h1v1H6V3z M7,4h1v1H7V4z M3,3h3v10H3V3z"/>
	<path class="st1" d="M8,3h1v10H8V3z M10,12h1v1h-1V12z M10,10h1v1h-1V10z M10,8h1v1h-1V8z M10,6h1v1h-1V6z M10,4h1v1h-1V4z M9,11h1
		v1H9V11z M9,9h1v1H9V9z M9,7h1v1H9V7z M9,5h1v1H9V5z M9,3h1v1H9V3z"/>
</g>
</svg>
