<?xml version="1.0" encoding="utf-8"?>
<!-- Generator: Adobe Illustrator 26.0.0, SVG Export Plug-In . SVG Version: 6.00 Build 0)  -->
<svg version="1.1" id="Capa_1" xmlns="http://www.w3.org/2000/svg" xmlns:xlink="http://www.w3.org/1999/xlink" x="0px" y="0px"
	 viewBox="0 0 16 16" style="enable-background:new 0 0 16 16;" xml:space="preserve">
<style type="text/css">
	.st0{fill:#D2D2D2;}
	.st1{fill:#D2D2D2;fill-opacity:0.502;}
</style>
<g>
	<path class="st0" d="M7,3C6.9,3,6.8,3,6.7,3.1c-0.1,0-0.1,0.1-0.2,0.1c0,0-0.1,0-0.1,0.1C6.3,3.3,6.2,3.3,6.2,3.4
		C6.1,3.5,6.1,3.7,6,3.8c0,0,0,0.1,0,0.1C6,3.9,6,4,6,4v8.4l-2.6-1.3c-0.5-0.2-1-0.1-1.3,0.4c-0.3,0.4-0.2,1,0.3,1.3l4,3l0,0
		c0,0,0,0,0,0c0,0,0,0,0,0c0,0,0,0,0,0c0,0,0,0,0,0c0,0,0,0,0.1,0c0,0,0,0,0,0c0,0,0,0,0.1,0c0,0,0,0,0,0c0,0,0,0,0.1,0
		c0,0,0,0,0.1,0c0,0,0,0,0,0c0,0,0.1,0,0.1,0h0h5c0,0,0.5,0,0.9-0.2c0.5-0.2,1.1-0.9,1.1-1.8v-4c0-0.5-0.3-0.9-0.8-1l-4-1
		C9.2,8,9.1,8,9,8H8V4c0-0.1,0-0.2-0.1-0.3c0-0.1-0.1-0.2-0.1-0.3c0,0,0-0.1-0.1-0.1C7.7,3.3,7.6,3.2,7.5,3.2c0,0-0.1,0-0.1,0
		c0,0-0.1,0-0.1,0c0,0-0.1,0-0.1,0S7.2,3,7.2,3C7.1,3,7,3,7,3z"/>
	<path class="st1" d="M7,0C4.8,0,3,1.8,3,4c0,1.5,0.8,2.7,2,3.4V4c0-1.1,0.9-2,2-2s2,0.9,2,2v3c0.1,0,0.2,0,0.2,0l0.3,0.1
		C10.4,6.4,11,5.2,11,4C11,1.8,9.2,0,7,0z"/>
</g>
</svg>
