<?xml version="1.0" encoding="utf-8"?>
<!-- Generator: Adobe Illustrator 21.0.0, SVG Export Plug-In . SVG Version: 6.00 Build 0)  -->
<svg version="1.1" id="Layer_General" xmlns="http://www.w3.org/2000/svg" xmlns:xlink="http://www.w3.org/1999/xlink" x="0px"
	 y="0px" viewBox="0 0 24 24" style="enable-background:new 0 0 24 24;" xml:space="preserve">
<style type="text/css">
	.st0{fill:none;stroke:#3E3E3E;stroke-width:3;stroke-miterlimit:10;}
	.st1{fill:#3E3E3E;}
</style>
<g id="Layer_Radio">
	<path id="Radio" class="st0" d="M12,20.3L12,20.3c-4.6,0-8.2-3.7-8.2-8.2l0,0c0-4.6,3.7-8.2,8.2-8.2l0,0c4.6,0,8.2,3.7,8.2,8.2l0,0
		C20.2,16.6,16.6,20.3,12,20.3z"/>
</g>
<g id="Layer_Point">
	<path id="Point" class="st1" d="M12,18L12,18c-3.3,0-6-2.7-6-6l0,0c0-3.3,2.7-6,6-6l0,0c3.3,0,6,2.7,6,6l0,0C18,15.3,15.3,18,12,18
		z"/>
</g>
</svg>
