<?xml version="1.0" encoding="utf-8"?>
<!-- Generator: Adobe Illustrator 26.0.0, SVG Export Plug-In . SVG Version: 6.00 Build 0)  -->
<svg version="1.1" id="Layer_General" xmlns="http://www.w3.org/2000/svg" xmlns:xlink="http://www.w3.org/1999/xlink" x="0px"
	 y="0px" viewBox="0 0 24 24" style="enable-background:new 0 0 24 24;" xml:space="preserve">
<style type="text/css">
	.st0{fill:none;stroke:#FF0000;stroke-width:2;stroke-miterlimit:10;}
	.st1{fill:#FF0000;}
</style>
<g id="Layer_Radio">
	<path id="Radio" class="st0" d="M12,20.7L12,20.7c-4.8,0-8.7-3.9-8.7-8.7l0,0c0-4.8,3.9-8.7,8.7-8.7l0,0c4.8,0,8.7,3.9,8.7,8.7l0,0
		C20.7,16.8,16.8,20.7,12,20.7z"/>
</g>
<g id="Layer_Point">
	<path id="Point" class="st1" d="M12,17L12,17c-2.8,0-5-2.2-5-5l0,0c0-2.8,2.2-5,5-5l0,0c2.8,0,5,2.2,5,5l0,0C17,14.8,14.8,17,12,17
		z"/>
</g>
</svg>
