<?xml version="1.0" encoding="utf-8"?>
<!-- Generator: Adobe Illustrator 26.0.0, SVG Export Plug-In . SVG Version: 6.00 Build 0)  -->
<svg version="1.1" id="Capa_1" xmlns="http://www.w3.org/2000/svg" xmlns:xlink="http://www.w3.org/1999/xlink" x="0px" y="0px"
	 viewBox="0 0 16 16" style="enable-background:new 0 0 16 16;" xml:space="preserve">
<style type="text/css">
	.st0{fill-rule:evenodd;clip-rule:evenodd;fill:#FFFFFF;}
</style>
<path class="st0" d="M8.1,3C3,3,0,8,0,8s3,5,8.1,5C13,13,16,8,16,8S13,3,8.1,3z M8,11.3c-2.2,0-4-1.5-4-3.3c0-1.8,1.8-3.3,4-3.3
	c2.2,0,4,1.5,4,3.3C12,9.8,10.2,11.3,8,11.3z M10,8c0,0.9-0.9,1.7-2,1.7S6,8.9,6,8c0-0.9,0.9-1.7,2-1.7S10,7.1,10,8z"/>
</svg>
