<?xml version="1.0" encoding="utf-8"?>
<!-- Generator: Adobe Illustrator 26.0.0, SVG Export Plug-In . SVG Version: 6.00 Build 0)  -->
<svg version="1.1" id="Capa_1" xmlns="http://www.w3.org/2000/svg" xmlns:xlink="http://www.w3.org/1999/xlink" x="0px" y="0px"
	 viewBox="0 0 16 16" style="enable-background:new 0 0 16 16;" xml:space="preserve">
<style type="text/css">
	.st0{fill-rule:evenodd;clip-rule:evenodd;fill:#FFFFFF;}
</style>
<path class="st0" d="M4.5,7.3c0.3,0.3,1.3,1.3,1.3,1.3L6.3,8L5.4,7.1l1.7-1.8c0,0-0.8-0.7-0.4-0.4c0.3-1.2,0-2.5-0.9-3.4
	C4.9,0.5,3.7,0.2,2.5,0.5l1.9,2l-0.5,2L2,5L0.1,3c-0.3,1.2,0,2.5,0.9,3.4C1.9,7.4,3.3,7.7,4.5,7.3z M10.9,9.2l-2.3,2.3l3.8,4
	c0.3,0.3,0.7,0.5,1.1,0.5c0.4,0,0.8-0.2,1.1-0.5c0.6-0.6,0.6-1.7,0-2.4C14.7,13.1,10.9,9.2,10.9,9.2z M16,2.5L13.6,0L6.3,7.5
	l0.9,0.9l-4.3,4.5l-1,0.5l-1.4,2.3L0.9,16l2.2-1.4l0.5-1l4.3-4.5L8.8,10L16,2.5z"/>
</svg>
