<?xml version="1.0" encoding="utf-8"?>
<!-- Generator: Adobe Illustrator 26.0.0, SVG Export Plug-In . SVG Version: 6.00 Build 0)  -->
<svg version="1.1" id="Capa_1" xmlns="http://www.w3.org/2000/svg" xmlns:xlink="http://www.w3.org/1999/xlink" x="0px" y="0px"
	 viewBox="0 0 16 16" style="enable-background:new 0 0 16 16;" xml:space="preserve">
<style type="text/css">
	.st0{fill-rule:evenodd;clip-rule:evenodd;fill:#FFFFFF;}
</style>
<g transform="matrix(1 0 0 1.1456 0 -2.3279)">
	<path class="st0" d="M16,9.8V8.2l-2.2-0.6l-0.5-1.1l1-1.8L13,3.5l-2.1,0.9L9.7,3.9L8.9,2H7.1L6.3,4L5.1,4.4L3,3.5L1.7,4.7l1,1.8
		L2.2,7.6L0,8.2v1.6l2.2,0.6l0.5,1.1l-1,1.8L3,14.5l2.1-0.9l1.2,0.5L7.1,16h1.8l0.7-1.9l1.3-0.4l2.1,0.9l1.3-1.1l-1.1-1.8l0.5-1.1
		L16,9.8L16,9.8z M8,12c-1.9,0-3.4-1.3-3.4-3S6.1,6,8,6s3.4,1.3,3.4,3S9.9,12,8,12z"/>
</g>
</svg>
