<?xml version="1.0" encoding="utf-8"?>
<!-- Generator: Adobe Illustrator 26.0.0, SVG Export Plug-In . SVG Version: 6.00 Build 0)  -->
<svg version="1.1" id="Capa_1" xmlns="http://www.w3.org/2000/svg" xmlns:xlink="http://www.w3.org/1999/xlink" x="0px" y="0px"
	 viewBox="0 0 16 16" style="enable-background:new 0 0 16 16;" xml:space="preserve">
<style type="text/css">
	.st0{fill-rule:evenodd;clip-rule:evenodd;fill:#FFFFFF;}
</style>
<path class="st0" d="M10,5H9V4h1V5z M3,6H2v1h1V6z M8,4H7v1h1V4z M4,4H2v1h2V4z M12,11h2v-1h-2V11z M8,7h1V6H8V7z M4,10H2v1h2V10z
	 M12,4h-1v1h1V4z M14,4h-1v1h1V4z M12,9h2V6h-2V9z M16,3v9c0,0.6-0.4,1-1,1H1c-0.6,0-1-0.4-1-1V3c0-0.5,0.4-1,1-1h14
	C15.6,2,16,2.4,16,3z M15,3H1v9h14V3z M6,7h1V6H6V7z M6,4H5v1h1V4z M4,7h1V6H4V7z M5,11h6v-1H5V11z M10,7h1V6h-1V7z M3,8H2v1h1V8z
	 M8,8v1h1V8H8z M6,8v1h1V8H6z M5,8H4v1h1V8z M10,9h1V8h-1V9z"/>
</svg>
