<?xml version="1.0" encoding="utf-8"?>
<!-- Generator: Adobe Illustrator 26.0.0, SVG Export Plug-In . SVG Version: 6.00 Build 0)  -->
<svg version="1.1" id="Capa_1" xmlns="http://www.w3.org/2000/svg" xmlns:xlink="http://www.w3.org/1999/xlink" x="0px" y="0px"
	 viewBox="0 0 16 16" style="enable-background:new 0 0 16 16;" xml:space="preserve">
<style type="text/css">
	.st0{fill-rule:evenodd;clip-rule:evenodd;fill:#FFFFFF;}
</style>
<path class="st0" d="M4.8,6.1C5,5.9,5,5.4,4.8,5.2C4.5,4.9,4.3,4.4,4.3,4s0.2-0.9,0.5-1.2C5,2.5,5,2.1,4.8,1.9
	C4.7,1.8,4.5,1.7,4.3,1.7C4.2,1.7,4,1.8,3.9,1.9C3.3,2.5,3,3.2,3,4s0.3,1.5,0.8,2.1C4.1,6.4,4.5,6.4,4.8,6.1z M2.3,0.5
	c-0.3-0.3-0.7-0.3-0.9,0C0.5,1.5,0,2.7,0,4c0,1.3,0.5,2.5,1.4,3.5c0.2,0.3,0.7,0.3,0.9,0s0.2-0.7,0-0.9c-0.7-0.7-1-1.6-1-2.5
	s0.3-1.8,1-2.5C2.6,1.2,2.6,0.8,2.3,0.5z M8,5.6c0.9,0,1.6-0.7,1.6-1.6c0-0.9-0.7-1.6-1.6-1.6S6.4,3.1,6.4,4C6.4,4.9,7.1,5.6,8,5.6z
	 M14.6,0.5c-0.2-0.3-0.6-0.3-0.9,0c0,0,0,0,0,0c-0.2,0.3-0.2,0.7,0,0.9c0.7,0.7,1,1.6,1,2.5s-0.3,1.8-1,2.5c-0.2,0.3-0.2,0.7,0,0.9
	c0.3,0.3,0.7,0.3,0.9,0C15.5,6.5,16,5.3,16,4C16,2.7,15.5,1.5,14.6,0.5z M8,6.9c-0.4,0-0.8-0.1-1.2-0.3L3.7,15h1.5L6,14h4l0.8,1h1.5
	L9.2,6.6C8.8,6.8,8.4,6.9,8,6.9z M8,7.4L9,11H7L8,7.4z M6,13l1-1h2l1,1H6z M11.2,1.9c-0.2,0.3-0.2,0.7,0,0.9
	c0.3,0.3,0.5,0.8,0.5,1.2c0,0.4-0.2,0.9-0.5,1.2c-0.2,0.3-0.2,0.7,0,0.9c0.2,0.2,0.6,0.3,0.9,0c0,0,0,0,0,0C12.7,5.5,13,4.8,13,4
	s-0.3-1.5-0.9-2.1C11.9,1.6,11.5,1.6,11.2,1.9C11.2,1.9,11.2,1.9,11.2,1.9z"/>
</svg>
