<?xml version="1.0" encoding="utf-8"?>
<!-- Generator: Adobe Illustrator 26.0.0, SVG Export Plug-In . SVG Version: 6.00 Build 0)  -->
<svg version="1.1" id="Capa_1" xmlns="http://www.w3.org/2000/svg" xmlns:xlink="http://www.w3.org/1999/xlink" x="0px" y="0px"
	 viewBox="0 0 8 8" style="enable-background:new 0 0 8 8;" xml:space="preserve">
<style type="text/css">
	.st0{fill:#FFFFFF;}
</style>
<path class="st0" d="M7.4,0C7.4,0,7.4,0,7.4,0L3.6,2.7c0,0-0.1,0.1-0.1,0.2L3.4,3.1c0.7,0.2,1.3,0.8,1.5,1.5l0.2-0.1
	c0.1,0,0.1-0.1,0.2-0.1l2.7-3.8c0-0.1,0-0.1,0-0.1L7.4,0C7.5,0,7.5,0,7.4,0L7.4,0z M2.7,4C1.9,4,1.3,4.6,1.3,5.3
	c0,1-0.6,1.8-1.3,2.3C0.4,7.9,0.9,8,1.3,8C2.8,8,4,6.8,4,5.3C4,4.6,3.4,4,2.7,4L2.7,4z"/>
</svg>
