<?xml version="1.0" encoding="utf-8"?>
<!-- Generator: Adobe Illustrator 26.0.0, SVG Export Plug-In . SVG Version: 6.00 Build 0)  -->
<svg version="1.1" id="Capa_1" xmlns="http://www.w3.org/2000/svg" xmlns:xlink="http://www.w3.org/1999/xlink" x="0px" y="0px"
	 viewBox="0 0 16 16" style="enable-background:new 0 0 16 16;" xml:space="preserve">
<style type="text/css">
	.st0{fill-rule:evenodd;clip-rule:evenodd;fill:#FFFFFF;}
</style>
<path class="st0" d="M15,3H7c0-0.5-0.4-1-1-1H2C1.5,2,1,2.4,1,3C0.4,3,0,3.4,0,4v9c0,0.6,0.4,1,1,1h14c0.6,0,1-0.4,1-1V4
	C16,3.4,15.6,3,15,3z M6,5H2V4h4V5z M10.5,12C8.6,12,7,10.4,7,8.5S8.6,5,10.5,5S14,6.6,14,8.5S12.4,12,10.5,12z M13,8.5
	c0,1.4-1.1,2.5-2.5,2.5S8,9.9,8,8.5S9.1,6,10.5,6S13,7.1,13,8.5z"/>
</svg>
