<?xml version="1.0" encoding="utf-8"?>
<!-- Generator: Adobe Illustrator 26.0.0, SVG Export Plug-In . SVG Version: 6.00 Build 0)  -->
<svg version="1.1" id="Capa_1" xmlns="http://www.w3.org/2000/svg" xmlns:xlink="http://www.w3.org/1999/xlink" x="0px" y="0px"
	 viewBox="0 0 14 16" style="enable-background:new 0 0 14 16;" xml:space="preserve">
<style type="text/css">
	.st0{fill-rule:evenodd;clip-rule:evenodd;fill:#FFFFFF;}
</style>
<path class="st0" d="M7,1C3.1,1,0,4.1,0,8s3.1,7,7,7c0.5,0,0.9-0.1,1.4-0.1c-0.2-0.1-0.2-0.7,0-1.1c0.2-0.4,0.8-1.4,0.2-1.8
	s-0.4-0.5-0.8-0.9c-0.4-0.4-0.2-0.5-0.2-0.6c-0.1-0.3,0.4-0.9,0.4-0.9c0-0.1,0-0.3,0-0.3C7.9,9.1,7.6,9,7.5,9C7.5,9,7.4,9.1,7.3,9.1
	c-0.1,0-0.5-0.2-0.6-0.3S6.6,8.5,6.5,8.4c-0.1-0.1-0.1,0-0.3-0.1S5.4,8,4.9,7.8C4.4,7.7,4.4,7.4,4.4,7.2c0-0.2-0.3-0.5-0.4-0.7
	C3.8,6.3,3.8,6,3.7,6.1S4,6.9,3.9,6.9c0,0-0.2-0.2-0.3-0.4C3.5,6.3,3.8,6.4,3.3,5.6s0.1-1.3,0.2-1.7c0-0.5,0.4,0.2,0.2-0.1
	s0-0.9-0.1-1.1C3.4,2.4,2.7,2.8,2.7,2.8c0-0.2,0.7-0.6,1.2-0.9S4.6,1.9,5,2c0.4,0.1,0.4,0.1,0.3,0C5.1,1.8,5.3,1.8,5.6,1.8
	c0.3,0,0.4,0.4,0.8,0.4c0.5,0,0.1,0.1,0.1,0.2S6.5,2.5,6.2,2.7c-0.3,0.2,0,0.2,0.6,0.6S7.1,3,7.1,2.7s0.4-0.1,0.4-0.1
	c0.3,0.2,0.3,0,0.5,0.1s0.9,0.6,0.9,0.6C8,3.8,8.5,3.9,8.7,4c0.1,0.1-0.3,0.3-0.3,0.3c-0.2-0.2-0.2,0-0.3,0.1c-0.1,0.1,0,0.2,0,0.2
	C7.5,4.7,7.6,5.3,7.7,5.4c0,0.1-0.4,0.4-0.5,0.6C7.1,6.2,7.4,6.6,7.3,6.7C7.1,6.7,6.9,6,5.9,6.2C5.6,6.3,5,6.7,5.4,7.3
	C5.7,8,6.3,7.1,6.5,7.2s-0.1,0.5,0,0.6S7,7.8,7,8.4C7,9,7.8,8.9,7.9,8.9c0.2,0,0.7-0.4,0.8-0.4c0.1,0,0.4-0.3,1,0.1
	c0.7,0.4,1,0.3,1.2,0.5c0.2,0.2,0.1,0.5,0.3,0.6s1.1,0,1.3,0.3c0.2,0.3-0.9,2.1-1.2,2.3s-0.5,0.6-0.8,0.9s-0.8,0.6-1.3,0.9
	c-0.4,0.2-0.5,0.7-0.7,0.8C11.6,14.2,14,11.4,14,8C14,4.2,10.8,1,7,1L7,1z M8.6,7.6c-0.1,0-0.3,0.2-0.8-0.1C7.4,7.2,7.1,7.2,7,7.2
	c0,0-0.1-0.1,0.2-0.1c0.4-0.1,1,0.4,1.1,0.4s0.2-0.1,0.4-0.1S8.7,7.5,8.6,7.6z M6.3,1.7c-0.1,0,0-0.1,0.1-0.1c0,0,0-0.1,0.1-0.1
	c0.1-0.1,0.6-0.2,0.5,0C6.9,1.7,6.4,1.7,6.3,1.7z M7.6,2.6c-0.2,0-0.6,0-0.5-0.1C7.4,2.2,7,2.1,6.7,2.1C6.5,2,6.4,1.9,6.5,1.9
	c0.1,0,0.6,0,0.7,0.1C7.3,2,7.7,2.2,7.7,2.3C7.8,2.5,7.7,2.6,7.6,2.6z M9,2.5C8.9,2.6,8.2,2.1,8.1,2c-0.6-0.5-0.9-0.3-1-0.4
	S7,1.4,7.2,1.3s0.7,0.1,1,0.1c0.3,0,0.7,0.3,0.7,0.6C8.9,2.2,9.2,2.4,9,2.5C9.1,2.5,9,2.5,9,2.5z"/>
</svg>
