<?xml version="1.0" encoding="utf-8"?>
<!-- Generator: Adobe Illustrator 26.0.0, SVG Export Plug-In . SVG Version: 6.00 Build 0)  -->
<svg version="1.1" id="Capa_1" xmlns="http://www.w3.org/2000/svg" xmlns:xlink="http://www.w3.org/1999/xlink" x="0px" y="0px"
	 viewBox="0 0 8 8" style="enable-background:new 0 0 8 8;" xml:space="preserve">
<style type="text/css">
	.st0{fill:#FFFFFF;}
</style>
<path class="st0" d="M3.9,0c0,0-0.1,0-0.1,0C3.3,0.1,3,0.5,3,1v2c0,0.6,0.4,1,1,1c0.6,0,1-0.4,1-1c0,0,0,0,0,0V1c0-0.6-0.4-1-1-1
	C4,0,4,0,3.9,0z M1.4,2C1.1,2.1,1,2.3,1,2.5V3c0,1.5,1.1,2.7,2.5,2.9V7H3C2.5,7,2,7.4,2,8h4c0-0.6-0.4-1-1-1H4.5V5.9
	C5.9,5.7,7,4.5,7,3V2.5C7,2.2,6.8,2,6.5,2S6,2.2,6,2.5V3c0,1.1-0.9,2-2,2S2,4.1,2,3V2.5C2,2.2,1.8,2,1.5,2C1.5,2,1.5,2,1.4,2
	C1.4,2,1.4,2,1.4,2L1.4,2z"/>
</svg>
