<?xml version="1.0" encoding="utf-8"?>
<!-- Generator: Adobe Illustrator 26.0.0, SVG Export Plug-In . SVG Version: 6.00 Build 0)  -->
<svg version="1.1" id="Capa_1" xmlns="http://www.w3.org/2000/svg" xmlns:xlink="http://www.w3.org/1999/xlink" x="0px" y="0px"
	 viewBox="0 0 8 8" style="enable-background:new 0 0 8 8;" xml:space="preserve">
<style type="text/css">
	.st0{fill:#FFFFFF;}
</style>
<path class="st0" d="M0.5,0C0.2,0,0,0.2,0,0.5S0.2,1,0.5,1S1,0.8,1,0.5S0.8,0,0.5,0z M2,0v1h6V0H2z M0.5,2C0.2,2,0,2.2,0,2.5
	S0.2,3,0.5,3S1,2.8,1,2.5S0.8,2,0.5,2z M2,2v1h6V2H2z M0.5,4C0.2,4,0,4.2,0,4.5S0.2,5,0.5,5S1,4.8,1,4.5S0.8,4,0.5,4z M2,4v1h6V4H2z
	 M0.5,6C0.2,6,0,6.2,0,6.5S0.2,7,0.5,7S1,6.8,1,6.5S0.8,6,0.5,6z M2,6v1h6V6H2z"/>
</svg>
