<?xml version="1.0" encoding="utf-8"?>
<!-- Generator: Adobe Illustrator 26.0.0, SVG Export Plug-In . SVG Version: 6.00 Build 0)  -->
<svg version="1.1" id="Capa_1" xmlns="http://www.w3.org/2000/svg" xmlns:xlink="http://www.w3.org/1999/xlink" x="0px" y="0px"
	 viewBox="0 0 8 8" style="enable-background:new 0 0 8 8;" xml:space="preserve">
<style type="text/css">
	.st0{fill:#FFFFFF;}
</style>
<path class="st0" d="M7.4,0.6H8v4.6H7.4L7.4,0.6z M2.6,0H8v0.6H2.6V0z M6.5,1.5h0.6v4.6H6.5V1.5z M1.7,0.9h5.4v0.6H1.7V0.9z
	 M5.6,2.4h0.6V7H5.6V2.4z M0.9,1.7h5.4v0.6H0.9V1.7z M0,2.6V8h5.4V2.6H0z M0.7,3.3h4.1v2L4.1,4.6L3.4,5.3l1.4,1.4v0.7H4.1L1.4,4.6
	L0.7,5.3L0.7,3.3z"/>
</svg>
