<?xml version="1.0" encoding="utf-8"?>
<!-- Generator: Adobe Illustrator 26.0.0, SVG Export Plug-In . SVG Version: 6.00 Build 0)  -->
<svg version="1.1" id="Capa_1" xmlns="http://www.w3.org/2000/svg" xmlns:xlink="http://www.w3.org/1999/xlink" x="0px" y="0px"
	 viewBox="0 0 16 16" style="enable-background:new 0 0 16 16;" xml:space="preserve">
<style type="text/css">
	.st0{fill:#FFFFFF;}
</style>
<g>
	<path class="st0" d="M11,4.6c-0.1,0-0.2,0.1-0.3,0.1c-0.2,0.2-0.2,0.5,0,0.7C11.6,6.5,12,7.6,12,8.7s-0.4,2.3-1.4,3.5
		c-0.2,0.2-0.1,0.5,0.1,0.7c0.2,0.2,0.5,0.1,0.7-0.1c1.1-1.3,1.6-2.7,1.6-4.1s-0.6-2.8-1.6-4C11.3,4.6,11.1,4.5,11,4.6z M9.5,5.8
		c-0.1,0-0.2,0-0.3,0.1C9,6,9,6.4,9.1,6.6C9.7,7.3,10,8.1,10,8.8S9.7,10.2,9.1,11C9,11.2,9,11.5,9.2,11.7s0.5,0.1,0.7-0.1
		c0.7-0.9,1.1-1.9,1.1-2.8c0-1-0.4-1.9-1.1-2.8C9.8,5.8,9.7,5.8,9.5,5.8z"/>
	<path class="st0" d="M2,0C0.8,0,0,0.8,0,2v2h14v10H0c0,1,1,2,2,2h12c1,0,2-1,2-2V2c0-1.2-0.8-2-2-2H2z"/>
	<path class="st0" d="M8,6v6c0,0.2-0.1,0.4-0.3,0.5c-0.2,0.1-0.4,0.1-0.6,0l-1.8-1.2C5.1,11.1,4.8,11,4.5,11H4c-0.6,0-1-0.5-1-1V8
		c0-0.6,0.4-1,1-1h0.6c0.3,0,0.6-0.1,0.8-0.2l1.8-1.2c0.2-0.1,0.4-0.1,0.6,0C7.9,5.6,8,5.8,8,6z"/>
	<path class="st0" d="M1,3c0.5,0,1,0.4,1,1v10c0,0.5-0.4,1-1,1c-0.5,0-1-0.4-1-1V4C0,3.4,0.4,3,1,3z"/>
</g>
</svg>
