<?xml version="1.0" encoding="utf-8"?>
<!-- Generator: Adobe Illustrator 26.0.0, SVG Export Plug-In . SVG Version: 6.00 Build 0)  -->
<svg version="1.1" id="Capa_1" xmlns="http://www.w3.org/2000/svg" xmlns:xlink="http://www.w3.org/1999/xlink" x="0px" y="0px"
	 viewBox="0 0 14 16" style="enable-background:new 0 0 14 16;" xml:space="preserve">
<style type="text/css">
	.st0{fill-rule:evenodd;clip-rule:evenodd;fill:#FFFFFF;}
</style>
<path class="st0" d="M5,3h1v1H5V3z M3,3h1v1H3V3z M1,3h1v1H1V3z M13,13H1V5h12V13z M13,4H7V3h6V4z M14,3c0-0.5-0.4-1-1-1H1
	C0.4,2,0,2.4,0,3v10c0,0.6,0.4,1,1,1h12c0.6,0,1-0.4,1-1V3z"/>
</svg>
